HIERARCHY
ROOT Hips
{
	OFFSET 0.000000 0.000000 0.000000
	CHANNELS 6 Xposition Yposition Zposition Zrotation Yrotation Xrotation 
	JOINT LeftUpLeg_virtual
	{
		OFFSET 0.000000 0.000000 0.000000
		CHANNELS 3 Zrotation Yrotation Xrotation
		JOINT LeftUpLeg
		{
			OFFSET 8.479694 -4.795517 -0.379053
			CHANNELS 3 Zrotation Yrotation Xrotation
			JOINT LeftLeg
			{
				OFFSET 0.485052 -32.551468 0.112863
				CHANNELS 3 Zrotation Yrotation Xrotation
				JOINT LeftFoot
				{
					OFFSET 0.438033 -32.635670 -3.012641
					CHANNELS 3 Zrotation Yrotation Xrotation
					JOINT LeftToeBase
					{
						OFFSET 0.970169 -13.225353 11.864223
						CHANNELS 3 Zrotation Yrotation Xrotation
						End Site
						{
							OFFSET 0.000000 0.000000 0.000000
						}
					}
				}
			}
		}
	}
	JOINT RightUpLeg_virtual
	{
		OFFSET 0.000000 0.000000 0.000000
		CHANNELS 3 Zrotation Yrotation Xrotation
		JOINT RightUpLeg
		{
			OFFSET -8.479694 -4.795517 -0.379053
			CHANNELS 3 Zrotation Yrotation Xrotation
			JOINT RightLeg
			{
				OFFSET -0.484100 -32.551483 0.112903
				CHANNELS 3 Zrotation Yrotation Xrotation
				JOINT RightFoot
				{
					OFFSET -0.438985 -32.635651 -3.012681
					CHANNELS 3 Zrotation Yrotation Xrotation
					JOINT RightToeBase
					{
						OFFSET -0.970169 -13.225354 11.864223
						CHANNELS 3 Zrotation Yrotation Xrotation
						End Site
						{
							OFFSET 0.000000 0.000000 0.000000
						}
					}
				}
			}
		}
	}
	JOINT Spine_virtual
	{
		OFFSET 0.000000 0.000000 0.000000
		CHANNELS 3 Zrotation Yrotation Xrotation
		JOINT Spine
		{
			OFFSET 0.000000 7.722015 1.166203
			CHANNELS 3 Zrotation Yrotation Xrotation
			JOINT Spine1
			{
				OFFSET 0.000000 12.024086 0.248766
				CHANNELS 3 Zrotation Yrotation Xrotation
				JOINT Spine2
				{
					OFFSET -0.000000 11.503036 -0.491240
					CHANNELS 3 Zrotation Yrotation Xrotation
					JOINT Neck_virtual
					{
						OFFSET 0.000000 0.000000 0.000000
						CHANNELS 3 Zrotation Yrotation Xrotation
						JOINT Neck
						{
							OFFSET 0.000000 18.430687 -3.123054
							CHANNELS 3 Zrotation Yrotation Xrotation
							JOINT Head
							{
								OFFSET -0.000000 9.051071 1.034021
								CHANNELS 3 Zrotation Yrotation Xrotation
								End Site
								{
									OFFSET 0.000000 0.000000 0.000000
								}
							}
						}
					}
					JOINT LeftShoulder_virtual
					{
						OFFSET 0.000000 0.000000 0.000000
						CHANNELS 3 Zrotation Yrotation Xrotation
						JOINT LeftShoulder
						{
							OFFSET 6.197824 13.665230 -4.064723
							CHANNELS 3 Zrotation Yrotation Xrotation
							JOINT LeftArm
							{
								OFFSET 7.778132 -0.187073 -1.709282
								CHANNELS 3 Zrotation Yrotation Xrotation
								JOINT LeftForeArm
								{
									OFFSET 21.954697 0.000000 -2.041093
									CHANNELS 3 Zrotation Yrotation Xrotation
									JOINT LeftHand
									{
										OFFSET 22.992908 0.000000 -0.870901
										CHANNELS 3 Zrotation Yrotation Xrotation
										End Site
										{
											OFFSET 0.000000 0.000000 0.000000
										}
									}
								}
							}
						}
					}
					JOINT RightShoulder_virtual
					{
						OFFSET 0.000000 0.000000 0.000000
						CHANNELS 3 Zrotation Yrotation Xrotation
						JOINT RightShoulder
						{
							OFFSET -6.197824 13.665230 -4.064723
							CHANNELS 3 Zrotation Yrotation Xrotation
							JOINT RightArm
							{
								OFFSET -7.778132 -0.187073 -1.709282
								CHANNELS 3 Zrotation Yrotation Xrotation
								JOINT RightForeArm
								{
									OFFSET -21.954697 0.000000 -2.041093
									CHANNELS 3 Zrotation Yrotation Xrotation
									JOINT RightHand
									{
										OFFSET -22.992908 0.000000 -0.870901
										CHANNELS 3 Zrotation Yrotation Xrotation
										End Site
										{
											OFFSET 0.000000 0.000000 0.000000
										}
									}
								}
							}
						}
					}
				}
			}
		}
	}
}
MOTION
Frames: 11
Frame Time: 0.033333
32.279514 81.746902 101.445137 -179.705433 17.901608 179.925993 -5.107608 0.236579 6.796251 4.203515 0.011637 -25.764956 6.809449 8.612283 26.480439 -1.367161 -7.006837 -2.008531 0.000000 0.000000 0.000000 -0.598151 -0.227844 5.790083 -1.383658 5.512434 -20.589252 -2.216146 6.735815 24.126460 6.641920 8.159803 -8.725161 0.000000 0.000000 0.000000 0.752083 2.097881 -3.984031 1.101317 -3.997782 -3.833848 -1.527274 -1.225661 9.705659 -0.021131 -0.303720 -0.013202 -2.033198 0.587081 10.098626 -2.162631 0.502711 -12.056468 0.000000 0.000000 0.000000 -0.302345 1.150337 7.773138 -7.651737 -4.847644 2.768429 -63.217970 -1.744764 9.801006 3.065302 -40.119179 11.122307 0.000000 0.000000 0.000000 -4.920455 2.690169 6.825951 29.850392 1.544726 5.424866 52.386140 3.992601 20.115319 -7.209477 24.455902 -4.551148 0.000000 0.000000 0.000000 
32.409031 81.725952 101.361038 -179.455830 17.390818 179.812953 -5.135868 0.268513 6.668541 4.106221 0.349004 -25.894895 6.734410 9.024010 26.327459 -1.174191 -6.825114 -2.079670 0.000000 0.000000 0.000000 -0.932257 -0.005906 5.641206 -1.703574 5.774851 -20.736149 -2.432671 7.209602 24.179344 6.477585 7.967197 -8.775950 0.000000 0.000000 0.000000 0.915296 2.047437 -3.900067 1.154042 -4.115963 -3.767204 -1.504413 -1.284797 9.738177 -0.052182 -0.286466 -0.010312 -2.014195 0.622130 10.080321 -2.130337 0.505409 -11.972920 0.000000 0.000000 0.000000 -0.282763 1.055631 7.833985 -7.560686 -5.043237 2.742420 -63.149279 -2.272847 9.623293 3.201754 -40.371513 10.973232 0.000000 0.000000 0.000000 -4.948494 2.605756 6.772778 29.837934 1.398788 5.414472 52.452783 4.165274 20.123906 -7.259673 24.644788 -4.637415 0.000000 0.000000 0.000000 
32.632393 81.707191 101.261269 -179.488178 17.730416 179.828075 -5.088637 0.336125 6.683478 4.181528 0.520580 -25.792410 6.700370 9.021188 26.392385 -1.200541 -6.833480 -2.180166 0.000000 0.000000 0.000000 -0.931973 0.163595 5.595360 -1.558696 5.794985 -20.741575 -2.391319 7.226045 24.450373 6.476146 7.986728 -8.932241 0.000000 0.000000 0.000000 0.911062 2.070133 -3.945017 1.102715 -4.106604 -3.815665 -1.475530 -1.246297 9.726254 -0.035030 -0.215551 -0.041453 -2.035418 0.430251 10.035238 -2.201005 0.577155 -12.004285 0.000000 0.000000 0.000000 -0.235230 0.954455 7.768293 -7.392751 -5.003510 2.655886 -63.018597 -2.725589 9.362922 2.779336 -40.484987 11.349035 0.000000 0.000000 0.000000 -4.948833 2.653638 6.733523 29.797059 1.434512 5.386087 52.458848 4.481124 20.049122 -7.294407 24.879003 -4.576880 0.000000 0.000000 0.000000 
32.929325 81.695755 101.163803 -179.508423 17.594159 179.837856 -5.078372 0.265121 6.668410 4.329172 0.573276 -25.674112 6.676422 8.870436 26.460745 -1.329576 -6.905187 -2.221553 0.000000 0.000000 0.000000 -0.923955 -0.100556 5.600420 -1.369725 5.861381 -20.749734 -2.328832 7.163380 24.737246 6.408360 7.956944 -9.115981 0.000000 0.000000 0.000000 0.930124 1.930236 -4.005103 1.042937 -4.217094 -3.895669 -1.545273 -1.343639 9.708217 -0.044568 -0.272495 0.012511 -1.938854 0.491642 10.018453 -2.217787 0.558594 -11.920643 0.000000 0.000000 0.000000 -0.209566 1.125918 7.693604 -7.317603 -5.031439 2.649271 -62.877895 -3.271088 9.268445 2.939026 -40.377620 11.161280 0.000000 0.000000 0.000000 -4.856965 2.707005 6.774644 29.675461 1.540529 5.372609 52.453479 4.921715 19.863408 -7.240826 25.196308 -4.589219 0.000000 0.000000 0.000000 
33.315975 81.689285 101.049866 -179.568364 17.842116 179.867868 -5.069043 0.323570 6.701833 4.500384 0.760649 -25.519986 6.644097 8.775425 26.499455 -1.451002 -6.923898 -2.239717 0.000000 0.000000 0.000000 -0.889058 -0.099847 5.600192 -1.157365 5.943455 -20.802072 -2.248454 7.128973 25.047526 6.368656 7.984514 -9.286198 0.000000 0.000000 0.000000 0.841588 1.997995 -4.048978 1.005664 -4.050946 -3.974750 -1.435791 -1.267790 9.714979 -0.020079 -0.321006 -0.080411 -2.003516 0.560499 10.111445 -2.331918 0.579480 -11.859596 0.000000 0.000000 0.000000 -0.221130 1.034250 7.741289 -7.168240 -5.073758 2.590094 -62.702168 -3.653964 9.299200 2.760299 -40.501140 11.413600 0.000000 0.000000 0.000000 -4.895797 2.846446 6.779949 29.599209 1.359429 5.289469 52.489597 5.194454 19.625389 -7.181513 25.475870 -4.588431 0.000000 0.000000 0.000000 
33.806618 81.695480 100.928802 -179.627978 18.280882 179.886064 -5.041718 0.393856 6.764525 4.747162 0.939860 -25.357450 6.632870 8.662783 26.536895 -1.576153 -6.917041 -2.282676 0.000000 0.000000 0.000000 -0.802473 -0.026018 5.615545 -0.898162 6.024000 -20.857260 -2.147642 7.083583 25.336773 6.342538 8.057656 -9.426015 0.000000 0.000000 0.000000 0.788181 2.071510 -4.079917 0.963698 -4.015024 -4.084937 -1.419414 -1.241794 9.718899 -0.058405 -0.215962 -0.071779 -1.922749 0.597205 10.113046 -2.341814 0.483964 -11.820060 0.000000 0.000000 0.000000 -0.145945 1.031009 7.705972 -7.090039 -5.077348 2.592973 -62.609639 -3.799974 9.541759 2.690499 -40.516040 11.511460 0.000000 0.000000 0.000000 -4.796931 2.612338 6.854872 29.392213 1.403320 5.348944 52.449634 5.492754 19.466598 -7.114587 25.777744 -4.570810 0.000000 0.000000 0.000000 
34.387981 81.704277 100.803055 -179.704230 18.472771 179.875941 -5.005312 0.331823 6.808135 5.062679 1.036514 -25.203924 6.621337 8.404018 26.608199 -1.743423 -6.932850 -2.285120 0.000000 0.000000 0.000000 -0.722685 -0.274095 5.661733 -0.593717 6.109049 -20.893323 -2.041989 6.972690 25.551270 6.281507 8.132899 -9.599757 0.000000 0.000000 0.000000 0.760914 2.079677 -4.120067 0.910311 -4.063362 -4.144478 -1.435371 -1.290787 9.751067 -0.042107 -0.211717 -0.015287 -1.910873 0.536948 10.162070 -2.347981 0.592611 -11.665711 0.000000 0.000000 0.000000 -0.191833 0.995470 7.783730 -6.971863 -5.111145 2.577590 -62.554670 -3.861300 9.878703 2.653746 -40.442694 11.638820 0.000000 0.000000 0.000000 -4.777708 2.641266 6.873434 29.233544 1.217726 5.280728 52.483870 5.714638 19.288459 -7.127290 26.012420 -4.665991 0.000000 0.000000 0.000000 
35.058613 81.711586 100.686050 -179.782450 19.061921 179.868292 -4.940846 0.366304 6.860567 5.432250 1.206566 -25.023037 6.593127 8.150913 26.658665 -1.872615 -6.916020 -2.355614 0.000000 0.000000 0.000000 -0.649230 -0.312036 5.694115 -0.254156 6.177911 -20.921366 -1.945505 6.896017 25.744286 6.230913 8.259489 -9.736972 0.000000 0.000000 0.000000 0.690733 2.133900 -4.124617 0.879717 -3.989578 -4.164249 -1.393272 -1.294231 9.783638 -0.050038 -0.196482 -0.032513 -1.945816 0.456683 10.302049 -2.371258 0.475185 -11.520139 0.000000 0.000000 0.000000 -0.197900 1.004625 7.831480 -6.851125 -5.062718 2.597737 -62.605521 -3.647786 10.147915 2.665481 -40.407037 11.690423 0.000000 0.000000 0.000000 -4.802047 2.638745 6.912907 29.050943 1.158948 5.193043 52.550461 5.828440 19.207009 -7.127623 26.214879 -4.751232 0.000000 0.000000 0.000000 
35.791042 81.712212 100.584824 -179.841162 19.674710 179.869070 -4.900718 0.418465 6.957070 5.850483 1.340027 -24.763551 6.525781 7.869116 26.738264 -2.006380 -6.940879 -2.421134 0.000000 0.000000 0.000000 -0.632769 -0.444370 5.735048 0.096569 6.271818 -20.930141 -1.876622 6.817283 25.874234 6.119911 8.371474 -9.867466 0.000000 0.000000 0.000000 0.610987 2.275877 -4.138257 0.863141 -3.865660 -4.159747 -1.358635 -1.259534 9.874379 0.008231 -0.179375 -0.080706 -1.915204 0.261539 10.408640 -2.348805 0.651697 -11.407177 0.000000 0.000000 0.000000 -0.210597 0.983183 7.930528 -6.753425 -5.070264 2.636335 -62.734536 -3.263378 10.296508 2.649096 -40.275214 11.759079 0.000000 0.000000 0.000000 -4.756189 2.623383 7.018286 28.884211 0.967043 5.124749 52.533266 5.915671 19.107632 -6.973631 26.247992 -4.793136 0.000000 0.000000 0.000000 
36.583332 81.706627 100.490891 -179.899396 20.237458 179.846531 -4.859497 0.508668 7.041341 6.376700 1.481247 -24.522517 6.467323 7.476168 26.766588 -2.086775 -6.973541 -2.576537 0.000000 0.000000 0.000000 -0.639695 -0.551110 5.783347 0.496333 6.363727 -20.923287 -1.824962 6.709392 25.952610 5.941020 8.467353 -9.993094 0.000000 0.000000 0.000000 0.534982 2.454237 -4.109274 0.845184 -3.780156 -4.113120 -1.370172 -1.234781 9.953771 -0.012812 -0.078218 -0.041162 -1.824642 0.453580 10.439969 -2.290372 0.526540 -11.270269 0.000000 0.000000 0.000000 -0.138112 0.927329 7.892466 -6.615064 -5.071059 2.656476 -62.922093 -2.761172 10.150222 2.695082 -39.981325 11.750121 0.000000 0.000000 0.000000 -4.679911 2.592061 7.071300 28.668954 0.679871 4.984868 52.629541 5.890543 18.953082 -6.777229 26.207661 -4.778296 0.000000 0.000000 0.000000 
37.440250 81.688347 100.390190 -179.983203 20.820503 179.815699 -4.874227 0.546150 7.173569 6.923050 1.541095 -24.268605 6.393784 7.127105 26.853317 -2.092425 -6.993665 -2.781697 0.000000 0.000000 0.000000 -0.625010 -0.615194 5.881867 0.988528 6.468091 -20.855887 -1.709007 6.479235 26.037591 5.780830 8.646535 -10.118194 0.000000 0.000000 0.000000 0.431026 2.598015 -4.018748 0.852059 -3.778257 -4.019706 -1.344136 -1.174502 9.932628 -0.014428 -0.022831 -0.019396 -1.822565 0.476026 10.453390 -2.363946 0.746335 -11.285323 0.000000 0.000000 0.000000 -0.145102 0.992198 8.019136 -6.471529 -5.021062 2.710641 -63.182836 -2.132257 9.886578 2.876635 -39.503594 11.625058 0.000000 0.000000 0.000000 -4.663499 2.682202 7.164027 28.519238 0.388713 4.877317 52.759612 5.835825 18.851389 -6.658062 26.113592 -5.024707 0.000000 0.000000 0.000000 
